# xmcd
#
# Track frame offsets:
#	150
#	19928
#	36493
#	53202
#	71657
#	87068
#	102212
#	118466
#	137202
#	152996
#	171744
#	188546
#	205511
#	223830
#	240917
#	256619
#	280152
#	298005
#
# Disc length: 4246
#
# Revision: 1
# Processed by: cddbd v1.5.1PL0 Copyright (c) Steve Scherf et al.
# Submitted via: audiograbber 1.80
# Normalized: r0:DSETVAR1
#
DISCID=0f109412
DTITLE=Various Artist - MTV Super Hits '97. Vol 1.
DYEAR=1900
DGENRE=
TTITLE0=No Doubt. - Don't Speak.
TTITLE1=Seal - Fly Like An Angel.
TTITLE2=Marky Mark. - Hey Dj.
TTITLE3=En Vogue. - Don't Let Go. (Love)
TTITLE4=Merril Bainbridge. - Mouth.
TTITLE5=Robson and Jerome. - What Becomes Of The Broken Hearted.
TTITLE6=Cardigans. - Carnaval.
TTITLE7=Salt'N'Pepa. - Upside Down.
TTITLE8=Duke. - So In Love With You.
TTITLE9=Firehouse. - In Your Perfect World.
TTITLE10=Spin Doctors Feat. Biz Markie. - That's The Way. (I Like It)
TTITLE11=Garcia. - Te Quuio, Latina.
TTITLE12=OMC. - On The Run.
TTITLE13=Jewel. - You Were Meant For Me.
TTITLE14=Space. - Neighborhood.
TTITLE15=Barry White Feat. Chris Rock. - Basketball Jones.
TTITLE16=Red Hot Chili Peppers. - Love Reollercoaster.
TTITLE17=Tori Amos. - Proffesional Widow.
EXTD=
EXTT0=
EXTT1=
EXTT2=
EXTT3=
EXTT4=
EXTT5=
EXTT6=
EXTT7=
EXTT8=
EXTT9=
EXTT10=
EXTT11=
EXTT12=
EXTT13=
EXTT14=
EXTT15=
EXTT16=
EXTT17=
PLAYORDER=
